<?xml version="1.0" encoding="UTF-8" standalone="no"?>
<svg
   xmlns:dc="http://purl.org/dc/elements/1.1/"
   xmlns:cc="http://creativecommons.org/ns#"
   xmlns:rdf="http://www.w3.org/1999/02/22-rdf-syntax-ns#"
   xmlns:svg="http://www.w3.org/2000/svg"
   xmlns="http://www.w3.org/2000/svg"
   id="svg8"
   version="1.1"
   viewBox="0 0 210 297"
   height="297mm"
   width="210mm">
  <defs
     id="defs2" />
  <metadata
     id="metadata5">
    <rdf:RDF>
      <cc:Work
         rdf:about="">
        <dc:format>image/svg+xml</dc:format>
        <dc:type
           rdf:resource="http://purl.org/dc/dcmitype/StillImage" />
        <dc:title></dc:title>
      </cc:Work>
    </rdf:RDF>
  </metadata>
  <g
     id="layer1">
    <path
       id="path815"
       d="m 111.84552,120.89052 c 2.22106,0.99331 4.61881,2.91786 5.53611,6.34414 0.91731,3.42627 0.35417,8.35458 -0.40108,11.62462 -0.75525,3.27004 -1.70257,4.88151 -3.84741,5.67328 -2.14484,0.79177 -5.48632,0.76317 -7.79484,0.12849 -2.30852,-0.63469 -3.583,-1.87532 -4.60307,-5.22307 -1.020073,-3.34774 -1.785636,-8.8023 -0.943093,-12.43096 0.842543,-3.62866 3.292863,-5.43142 5.540303,-6.30165 2.24743,-0.87024 4.29202,-0.80817 6.51308,0.18515 z"
       style="fill:#e9c6af;fill-opacity:1;stroke:#000000;stroke-width:0.26458332px;stroke-linecap:butt;stroke-linejoin:miter;stroke-opacity:1" />
    <path
       id="path819"
       d="m 104.70284,136.50465 c 2.60614,0 5.21202,-1e-5 7.81763,-1e-5"
       style="fill:none;stroke:#000000;stroke-width:0.665;stroke-linecap:round;stroke-linejoin:miter;stroke-opacity:1;stroke-miterlimit:4;stroke-dasharray:none" />
    <g
       transform="translate(0.70870533,1.2756696)"
       id="g864">
      <path
         style="fill:#ffffff;fill-opacity:1;stroke:#000000;stroke-width:0.26458332px;stroke-linecap:butt;stroke-linejoin:miter;stroke-opacity:1"
         d="m 103.43901,125.56596 c 0.0502,-0.44837 0.57365,-0.94393 1.01894,-0.88816 0.44529,0.0558 0.81279,0.6627 0.76284,1.11089 -0.05,0.44818 -0.51764,0.7377 -0.96339,0.68199 -0.44574,-0.0557 -0.86863,-0.45635 -0.81839,-0.90472 z"
         id="path823" />
      <circle
         style="fill:#000000;fill-opacity:1;stroke:#000000;stroke-width:0.40227392;stroke-linecap:round;stroke-miterlimit:4;stroke-dasharray:none;stroke-opacity:1"
         id="path858"
         cx="104.38545"
         cy="125.61341"
         r="0.131363" />
    </g>
    <g
       transform="translate(-0.56696426,1.1339286)"
       id="g868">
      <path
         style="fill:#ffffff;fill-opacity:1;stroke:#000000;stroke-width:0.26458332px;stroke-linecap:butt;stroke-linejoin:miter;stroke-opacity:1"
         d="m 110.99774,125.62165 c 0.0252,-0.40941 0.49846,-0.89383 0.89364,-0.85198 0.39517,0.0418 0.71256,0.60979 0.68766,1.019 -0.0249,0.40921 -0.39209,0.65958 -0.78784,0.6179 -0.39576,-0.0417 -0.81863,-0.37552 -0.79346,-0.78492 z"
         id="path827"
         transform="translate(0.66817382,0.13363476)" />
      <ellipse
         style="fill:#000000;fill-opacity:1;stroke:#000000;stroke-width:0.38446513;stroke-linecap:round;stroke-miterlimit:4;stroke-dasharray:none;stroke-opacity:1"
         id="path860"
         cx="112.47872"
         cy="125.73035"
         rx="0.11521091"
         ry="0.10685872" />
    </g>
  </g>
</svg>
